<mxfile host="app.diagrams.net" modified="2023-07-10T05:19:20.511Z" agent="Mozilla/5.0 (Windows NT 10.0; Win64; x64) AppleWebKit/537.36 (KHTML, like Gecko) Chrome/114.0.0.0 Safari/537.36" etag="W9-tqL1QN-duEX-4TI9S" version="21.5.2" type="device">
  <diagram name="WebsiteDesignWireframe" id="510aCwTR6cfwQY0MAlZ4">
    <mxGraphModel dx="3585" dy="2390" grid="1" gridSize="10" guides="1" tooltips="1" connect="1" arrows="1" fold="1" page="0" pageScale="1" pageWidth="850" pageHeight="1100" math="0" shadow="0">
      <root>
        <mxCell id="0" />
        <mxCell id="1" parent="0" />
        <mxCell id="JzrJOFQu4B8ua3CG2KTd-1" value="Home Page" style="text;html=1;strokeColor=none;fillColor=none;align=center;verticalAlign=middle;whiteSpace=wrap;rounded=0;" parent="1" vertex="1">
          <mxGeometry x="365" y="10" width="120" height="30" as="geometry" />
        </mxCell>
        <mxCell id="JzrJOFQu4B8ua3CG2KTd-2" value="" style="whiteSpace=wrap;html=1;fillColor=#171717;" parent="1" vertex="1">
          <mxGeometry x="200" y="40" width="440" height="780" as="geometry" />
        </mxCell>
        <mxCell id="JzrJOFQu4B8ua3CG2KTd-5" value="" style="rounded=0;whiteSpace=wrap;html=1;fillColor=#292929;" parent="1" vertex="1">
          <mxGeometry x="200" y="40" width="440" height="30" as="geometry" />
        </mxCell>
        <mxCell id="JzrJOFQu4B8ua3CG2KTd-7" value="About Me" style="text;html=1;strokeColor=none;fillColor=none;align=center;verticalAlign=middle;whiteSpace=wrap;rounded=0;" parent="1" vertex="1">
          <mxGeometry x="375" y="40" width="100" height="30" as="geometry" />
        </mxCell>
        <mxCell id="JzrJOFQu4B8ua3CG2KTd-8" value="Home" style="text;html=1;strokeColor=none;fillColor=none;align=center;verticalAlign=middle;whiteSpace=wrap;rounded=0;shadow=0;" parent="1" vertex="1">
          <mxGeometry x="275" y="40" width="100" height="30" as="geometry" />
        </mxCell>
        <mxCell id="JzrJOFQu4B8ua3CG2KTd-9" value="Things to Share" style="text;html=1;strokeColor=none;fillColor=none;align=center;verticalAlign=middle;whiteSpace=wrap;rounded=0;" parent="1" vertex="1">
          <mxGeometry x="485" y="40" width="100" height="30" as="geometry" />
        </mxCell>
        <mxCell id="JzrJOFQu4B8ua3CG2KTd-10" value="&lt;h1 style=&quot;text-align: center;&quot;&gt;&lt;font color=&quot;#d4af37&quot;&gt;Welcome!&lt;/font&gt;&lt;/h1&gt;&lt;p style=&quot;text-align: center;&quot;&gt;My name is Kohlton (Kohl) Johnson. I&#39;m a Software Development major at Grand Canyon University.&lt;/p&gt;" style="text;html=1;strokeColor=none;fillColor=none;spacing=5;spacingTop=-20;whiteSpace=wrap;overflow=hidden;rounded=0;" parent="1" vertex="1">
          <mxGeometry x="320" y="95" width="210" height="95" as="geometry" />
        </mxCell>
        <mxCell id="JzrJOFQu4B8ua3CG2KTd-25" value="" style="whiteSpace=wrap;html=1;fillColor=#171717;imageAspect=1;expand=1;resizeHeight=1;resizable=1;fixedWidth=1;recursiveResize=0;" parent="1" vertex="1">
          <mxGeometry x="780" y="-270" width="440" height="1090" as="geometry" />
        </mxCell>
        <mxCell id="JzrJOFQu4B8ua3CG2KTd-26" value="Hobbies Page" style="text;html=1;strokeColor=none;fillColor=none;align=center;verticalAlign=middle;whiteSpace=wrap;rounded=0;" parent="1" vertex="1">
          <mxGeometry x="945" y="-300" width="120" height="30" as="geometry" />
        </mxCell>
        <mxCell id="JzrJOFQu4B8ua3CG2KTd-28" value="&lt;h1 style=&quot;text-align: center;&quot;&gt;&lt;font color=&quot;#d4af37&quot;&gt;Hobbies&lt;/font&gt;&lt;/h1&gt;&lt;p style=&quot;text-align: center;&quot;&gt;When it comes to things I like doing for fun, I&#39;m down for anything. Skiing, fishing, hunting, art, skateboarding, I like it all. The activities below are ones I do regularly and take priority over almost anything else.&amp;nbsp;&lt;/p&gt;" style="text;html=1;strokeColor=none;fillColor=none;spacing=5;spacingTop=-20;whiteSpace=wrap;overflow=hidden;rounded=0;" parent="1" vertex="1">
          <mxGeometry x="895" y="-215" width="210" height="145" as="geometry" />
        </mxCell>
        <mxCell id="JzrJOFQu4B8ua3CG2KTd-29" value="" style="rounded=0;whiteSpace=wrap;html=1;fillColor=#292929;" parent="1" vertex="1">
          <mxGeometry x="780" y="-270" width="440" height="30" as="geometry" />
        </mxCell>
        <mxCell id="JzrJOFQu4B8ua3CG2KTd-30" value="Things to Share" style="text;html=1;strokeColor=none;fillColor=none;align=center;verticalAlign=middle;whiteSpace=wrap;rounded=0;" parent="1" vertex="1">
          <mxGeometry x="955" y="-270" width="100" height="30" as="geometry" />
        </mxCell>
        <mxCell id="JzrJOFQu4B8ua3CG2KTd-31" value="About Me" style="text;html=1;strokeColor=none;fillColor=none;align=center;verticalAlign=middle;whiteSpace=wrap;rounded=0;shadow=0;" parent="1" vertex="1">
          <mxGeometry x="855" y="-270" width="100" height="30" as="geometry" />
        </mxCell>
        <mxCell id="JzrJOFQu4B8ua3CG2KTd-32" value="Announcements" style="text;html=1;strokeColor=none;fillColor=none;align=center;verticalAlign=middle;whiteSpace=wrap;rounded=0;" parent="1" vertex="1">
          <mxGeometry x="1065" y="-270" width="100" height="30" as="geometry" />
        </mxCell>
        <mxCell id="JzrJOFQu4B8ua3CG2KTd-33" value="" style="rounded=1;whiteSpace=wrap;html=1;fillColor=#292929;" parent="1" vertex="1">
          <mxGeometry x="984" y="30" width="156" height="90" as="geometry" />
        </mxCell>
        <mxCell id="JzrJOFQu4B8ua3CG2KTd-34" value="" style="rounded=1;whiteSpace=wrap;html=1;fillColor=#292929;" parent="1" vertex="1">
          <mxGeometry x="884" y="30" width="80" height="90" as="geometry" />
        </mxCell>
        <mxCell id="JzrJOFQu4B8ua3CG2KTd-35" value="" style="rounded=1;whiteSpace=wrap;html=1;fillColor=#292929;" parent="1" vertex="1">
          <mxGeometry x="884" y="195" width="156" height="90" as="geometry" />
        </mxCell>
        <mxCell id="JzrJOFQu4B8ua3CG2KTd-36" value="" style="rounded=1;whiteSpace=wrap;html=1;fillColor=#292929;" parent="1" vertex="1">
          <mxGeometry x="1060" y="195" width="80" height="90" as="geometry" />
        </mxCell>
        <mxCell id="JzrJOFQu4B8ua3CG2KTd-38" value="&lt;h2&gt;Astronomy&lt;/h2&gt;" style="text;html=1;strokeColor=none;fillColor=none;align=center;verticalAlign=middle;whiteSpace=wrap;rounded=0;fontColor=#D4AF37;" parent="1" vertex="1">
          <mxGeometry x="875" y="-10" width="260" height="30" as="geometry" />
        </mxCell>
        <mxCell id="JzrJOFQu4B8ua3CG2KTd-39" value="&lt;h2&gt;Game Development&lt;/h2&gt;" style="text;html=1;strokeColor=none;fillColor=none;align=center;verticalAlign=middle;whiteSpace=wrap;rounded=0;fontColor=#D4AF37;" parent="1" vertex="1">
          <mxGeometry x="880" y="160" width="260" height="30" as="geometry" />
        </mxCell>
        <mxCell id="JzrJOFQu4B8ua3CG2KTd-43" value="" style="rounded=1;whiteSpace=wrap;html=1;fillColor=#292929;" parent="1" vertex="1">
          <mxGeometry x="986.5" y="370" width="156" height="90" as="geometry" />
        </mxCell>
        <mxCell id="JzrJOFQu4B8ua3CG2KTd-44" value="" style="rounded=1;whiteSpace=wrap;html=1;fillColor=#292929;" parent="1" vertex="1">
          <mxGeometry x="886.5" y="370" width="80" height="90" as="geometry" />
        </mxCell>
        <mxCell id="JzrJOFQu4B8ua3CG2KTd-45" value="" style="rounded=1;whiteSpace=wrap;html=1;fillColor=#292929;" parent="1" vertex="1">
          <mxGeometry x="886.5" y="535" width="156" height="90" as="geometry" />
        </mxCell>
        <mxCell id="JzrJOFQu4B8ua3CG2KTd-46" value="" style="rounded=1;whiteSpace=wrap;html=1;fillColor=#292929;" parent="1" vertex="1">
          <mxGeometry x="1062.5" y="535" width="80" height="90" as="geometry" />
        </mxCell>
        <mxCell id="JzrJOFQu4B8ua3CG2KTd-47" value="&lt;h2&gt;Pixel Art&lt;/h2&gt;" style="text;html=1;strokeColor=none;fillColor=none;align=center;verticalAlign=middle;whiteSpace=wrap;rounded=0;fontColor=#D4AF37;" parent="1" vertex="1">
          <mxGeometry x="877.5" y="330" width="260" height="30" as="geometry" />
        </mxCell>
        <mxCell id="JzrJOFQu4B8ua3CG2KTd-48" value="&lt;h2&gt;Outdoors&lt;/h2&gt;" style="text;html=1;strokeColor=none;fillColor=none;align=center;verticalAlign=middle;whiteSpace=wrap;rounded=0;fontColor=#D4AF37;" parent="1" vertex="1">
          <mxGeometry x="882.5" y="500" width="260" height="30" as="geometry" />
        </mxCell>
        <mxCell id="JzrJOFQu4B8ua3CG2KTd-49" value="" style="rounded=1;whiteSpace=wrap;html=1;fillColor=#292929;" parent="1" vertex="1">
          <mxGeometry x="986.5" y="700" width="156" height="90" as="geometry" />
        </mxCell>
        <mxCell id="JzrJOFQu4B8ua3CG2KTd-50" value="" style="rounded=1;whiteSpace=wrap;html=1;fillColor=#292929;" parent="1" vertex="1">
          <mxGeometry x="886.5" y="700" width="80" height="90" as="geometry" />
        </mxCell>
        <mxCell id="JzrJOFQu4B8ua3CG2KTd-51" value="&lt;h2&gt;Gaming&lt;/h2&gt;" style="text;html=1;strokeColor=none;fillColor=none;align=center;verticalAlign=middle;whiteSpace=wrap;rounded=0;fontColor=#D4AF37;" parent="1" vertex="1">
          <mxGeometry x="877.5" y="660" width="260" height="30" as="geometry" />
        </mxCell>
        <mxCell id="2Uebgh1moqTdtuHqgNuJ-1" value="GIF Image&lt;br&gt;(use url)" style="text;html=1;strokeColor=none;fillColor=none;align=center;verticalAlign=middle;whiteSpace=wrap;rounded=0;" parent="1" vertex="1">
          <mxGeometry x="894" y="60" width="60" height="30" as="geometry" />
        </mxCell>
        <mxCell id="2Uebgh1moqTdtuHqgNuJ-2" value="GIF Image&lt;br&gt;(use url)" style="text;html=1;strokeColor=none;fillColor=none;align=center;verticalAlign=middle;whiteSpace=wrap;rounded=0;" parent="1" vertex="1">
          <mxGeometry x="1070" y="225" width="60" height="30" as="geometry" />
        </mxCell>
        <mxCell id="2Uebgh1moqTdtuHqgNuJ-3" value="GIF Image&lt;br&gt;(use url)" style="text;html=1;strokeColor=none;fillColor=none;align=center;verticalAlign=middle;whiteSpace=wrap;rounded=0;" parent="1" vertex="1">
          <mxGeometry x="896.5" y="400" width="60" height="30" as="geometry" />
        </mxCell>
        <mxCell id="2Uebgh1moqTdtuHqgNuJ-4" value="GIF Image&lt;br&gt;(use url)" style="text;html=1;strokeColor=none;fillColor=none;align=center;verticalAlign=middle;whiteSpace=wrap;rounded=0;" parent="1" vertex="1">
          <mxGeometry x="1072.5" y="565" width="60" height="30" as="geometry" />
        </mxCell>
        <mxCell id="2Uebgh1moqTdtuHqgNuJ-5" value="GIF Image&lt;br&gt;(use url)" style="text;html=1;strokeColor=none;fillColor=none;align=center;verticalAlign=middle;whiteSpace=wrap;rounded=0;" parent="1" vertex="1">
          <mxGeometry x="896.5" y="730" width="60" height="30" as="geometry" />
        </mxCell>
        <mxCell id="2Uebgh1moqTdtuHqgNuJ-7" value="" style="rounded=1;whiteSpace=wrap;html=1;fillColor=#292929;" parent="1" vertex="1">
          <mxGeometry x="310" y="230" width="242" height="90" as="geometry" />
        </mxCell>
        <mxCell id="2Uebgh1moqTdtuHqgNuJ-8" value="" style="rounded=1;whiteSpace=wrap;html=1;fillColor=#292929;" parent="1" vertex="1">
          <mxGeometry x="310" y="340" width="156" height="90" as="geometry" />
        </mxCell>
        <mxCell id="2Uebgh1moqTdtuHqgNuJ-9" value="" style="rounded=1;whiteSpace=wrap;html=1;fillColor=#292929;" parent="1" vertex="1">
          <mxGeometry x="486" y="340" width="66" height="90" as="geometry" />
        </mxCell>
        <mxCell id="2Uebgh1moqTdtuHqgNuJ-10" value="" style="rounded=1;whiteSpace=wrap;html=1;strokeWidth=2;fillWeight=4;hachureGap=8;hachureAngle=45;fillColor=#1ba1e2;sketch=1;" parent="1" vertex="1">
          <mxGeometry x="321" y="290" width="50" height="20" as="geometry" />
        </mxCell>
        <mxCell id="2Uebgh1moqTdtuHqgNuJ-11" value="" style="rounded=1;whiteSpace=wrap;html=1;strokeWidth=2;fillWeight=4;hachureGap=8;hachureAngle=45;fillColor=#1ba1e2;sketch=1;" parent="1" vertex="1">
          <mxGeometry x="321" y="400" width="43" height="20" as="geometry" />
        </mxCell>
        <mxCell id="2Uebgh1moqTdtuHqgNuJ-12" value="" style="rounded=1;whiteSpace=wrap;html=1;strokeWidth=2;fillWeight=4;hachureGap=8;hachureAngle=45;fillColor=#1ba1e2;sketch=1;" parent="1" vertex="1">
          <mxGeometry x="494" y="400" width="50" height="20" as="geometry" />
        </mxCell>
        <mxCell id="2Uebgh1moqTdtuHqgNuJ-15" value="Background" style="text;html=1;strokeColor=none;fillColor=none;align=center;verticalAlign=middle;whiteSpace=wrap;rounded=0;" parent="1" vertex="1">
          <mxGeometry x="396" y="230" width="60" height="30" as="geometry" />
        </mxCell>
        <mxCell id="2Uebgh1moqTdtuHqgNuJ-16" value="My Beliefs" style="text;html=1;strokeColor=none;fillColor=none;align=center;verticalAlign=middle;whiteSpace=wrap;rounded=0;" parent="1" vertex="1">
          <mxGeometry x="313" y="340" width="153" height="30" as="geometry" />
        </mxCell>
        <mxCell id="2Uebgh1moqTdtuHqgNuJ-17" value="Contact" style="text;html=1;strokeColor=none;fillColor=none;align=center;verticalAlign=middle;whiteSpace=wrap;rounded=0;" parent="1" vertex="1">
          <mxGeometry x="464" y="340" width="110" height="30" as="geometry" />
        </mxCell>
        <mxCell id="7g9YASAPQkTzJjuGKXkD-1" value="" style="rounded=1;whiteSpace=wrap;html=1;fillColor=#292929;" vertex="1" parent="1">
          <mxGeometry x="310" y="450" width="242" height="90" as="geometry" />
        </mxCell>
        <mxCell id="7g9YASAPQkTzJjuGKXkD-2" value="" style="rounded=1;whiteSpace=wrap;html=1;fillColor=#292929;" vertex="1" parent="1">
          <mxGeometry x="310" y="560" width="156" height="90" as="geometry" />
        </mxCell>
        <mxCell id="7g9YASAPQkTzJjuGKXkD-3" value="" style="rounded=1;whiteSpace=wrap;html=1;fillColor=#292929;" vertex="1" parent="1">
          <mxGeometry x="486" y="560" width="66" height="90" as="geometry" />
        </mxCell>
        <mxCell id="7g9YASAPQkTzJjuGKXkD-4" value="" style="rounded=1;whiteSpace=wrap;html=1;strokeWidth=2;fillWeight=4;hachureGap=8;hachureAngle=45;fillColor=#1ba1e2;sketch=1;" vertex="1" parent="1">
          <mxGeometry x="321" y="510" width="50" height="20" as="geometry" />
        </mxCell>
        <mxCell id="7g9YASAPQkTzJjuGKXkD-5" value="" style="rounded=1;whiteSpace=wrap;html=1;strokeWidth=2;fillWeight=4;hachureGap=8;hachureAngle=45;fillColor=#1ba1e2;sketch=1;" vertex="1" parent="1">
          <mxGeometry x="321" y="620" width="43" height="20" as="geometry" />
        </mxCell>
        <mxCell id="7g9YASAPQkTzJjuGKXkD-6" value="" style="rounded=1;whiteSpace=wrap;html=1;strokeWidth=2;fillWeight=4;hachureGap=8;hachureAngle=45;fillColor=#1ba1e2;sketch=1;" vertex="1" parent="1">
          <mxGeometry x="494" y="620" width="50" height="20" as="geometry" />
        </mxCell>
        <mxCell id="7g9YASAPQkTzJjuGKXkD-9" value="Hobbies" style="text;html=1;strokeColor=none;fillColor=none;align=center;verticalAlign=middle;whiteSpace=wrap;rounded=0;" vertex="1" parent="1">
          <mxGeometry x="396" y="450" width="60" height="30" as="geometry" />
        </mxCell>
        <mxCell id="7g9YASAPQkTzJjuGKXkD-10" value="Photo Collection" style="text;html=1;strokeColor=none;fillColor=none;align=center;verticalAlign=middle;whiteSpace=wrap;rounded=0;" vertex="1" parent="1">
          <mxGeometry x="313" y="560" width="153" height="30" as="geometry" />
        </mxCell>
        <mxCell id="7g9YASAPQkTzJjuGKXkD-11" value="Memes" style="text;html=1;strokeColor=none;fillColor=none;align=center;verticalAlign=middle;whiteSpace=wrap;rounded=0;" vertex="1" parent="1">
          <mxGeometry x="464" y="560" width="110" height="30" as="geometry" />
        </mxCell>
        <mxCell id="7g9YASAPQkTzJjuGKXkD-13" value="" style="whiteSpace=wrap;html=1;fillColor=#171717;imageAspect=1;expand=1;resizeHeight=1;resizable=1;fixedWidth=1;recursiveResize=0;" vertex="1" parent="1">
          <mxGeometry x="1290" y="-255" width="440" height="1090" as="geometry" />
        </mxCell>
        <mxCell id="7g9YASAPQkTzJjuGKXkD-14" value="Background Page" style="text;html=1;strokeColor=none;fillColor=none;align=center;verticalAlign=middle;whiteSpace=wrap;rounded=0;" vertex="1" parent="1">
          <mxGeometry x="1455" y="-285" width="120" height="30" as="geometry" />
        </mxCell>
        <mxCell id="7g9YASAPQkTzJjuGKXkD-15" value="&lt;h1 style=&quot;&quot;&gt;&lt;font color=&quot;#d4af37&quot;&gt;Background&lt;/font&gt;&lt;/h1&gt;&lt;p style=&quot;&quot;&gt;Write some stuff here&amp;nbsp;&lt;/p&gt;" style="text;html=1;strokeColor=none;fillColor=none;spacing=5;spacingTop=-20;whiteSpace=wrap;overflow=hidden;rounded=0;align=center;" vertex="1" parent="1">
          <mxGeometry x="1405" y="-200" width="210" height="145" as="geometry" />
        </mxCell>
        <mxCell id="7g9YASAPQkTzJjuGKXkD-16" value="" style="rounded=0;whiteSpace=wrap;html=1;fillColor=#292929;" vertex="1" parent="1">
          <mxGeometry x="1290" y="-255" width="440" height="30" as="geometry" />
        </mxCell>
        <mxCell id="7g9YASAPQkTzJjuGKXkD-17" value="Things to Share" style="text;html=1;strokeColor=none;fillColor=none;align=center;verticalAlign=middle;whiteSpace=wrap;rounded=0;" vertex="1" parent="1">
          <mxGeometry x="1465" y="-255" width="100" height="30" as="geometry" />
        </mxCell>
        <mxCell id="7g9YASAPQkTzJjuGKXkD-18" value="About Me" style="text;html=1;strokeColor=none;fillColor=none;align=center;verticalAlign=middle;whiteSpace=wrap;rounded=0;shadow=0;" vertex="1" parent="1">
          <mxGeometry x="1365" y="-255" width="100" height="30" as="geometry" />
        </mxCell>
        <mxCell id="7g9YASAPQkTzJjuGKXkD-19" value="Announcements" style="text;html=1;strokeColor=none;fillColor=none;align=center;verticalAlign=middle;whiteSpace=wrap;rounded=0;" vertex="1" parent="1">
          <mxGeometry x="1575" y="-255" width="100" height="30" as="geometry" />
        </mxCell>
        <mxCell id="7g9YASAPQkTzJjuGKXkD-20" value="" style="rounded=1;whiteSpace=wrap;html=1;fillColor=#292929;" vertex="1" parent="1">
          <mxGeometry x="1400" y="45" width="250" height="90" as="geometry" />
        </mxCell>
        <mxCell id="7g9YASAPQkTzJjuGKXkD-22" value="" style="rounded=1;whiteSpace=wrap;html=1;fillColor=#292929;" vertex="1" parent="1">
          <mxGeometry x="1394" y="210" width="256" height="90" as="geometry" />
        </mxCell>
        <mxCell id="7g9YASAPQkTzJjuGKXkD-24" value="&lt;h2&gt;Past&lt;/h2&gt;" style="text;html=1;strokeColor=none;fillColor=none;align=center;verticalAlign=middle;whiteSpace=wrap;rounded=0;fontColor=#D4AF37;" vertex="1" parent="1">
          <mxGeometry x="1385" y="5" width="260" height="30" as="geometry" />
        </mxCell>
        <mxCell id="7g9YASAPQkTzJjuGKXkD-25" value="&lt;h2&gt;Present&lt;/h2&gt;" style="text;html=1;strokeColor=none;fillColor=none;align=center;verticalAlign=middle;whiteSpace=wrap;rounded=0;fontColor=#D4AF37;" vertex="1" parent="1">
          <mxGeometry x="1390" y="175" width="260" height="30" as="geometry" />
        </mxCell>
        <mxCell id="7g9YASAPQkTzJjuGKXkD-26" value="" style="rounded=1;whiteSpace=wrap;html=1;fillColor=#292929;" vertex="1" parent="1">
          <mxGeometry x="1390" y="385" width="262.5" height="90" as="geometry" />
        </mxCell>
        <mxCell id="7g9YASAPQkTzJjuGKXkD-30" value="&lt;h2&gt;Future&lt;/h2&gt;" style="text;html=1;strokeColor=none;fillColor=none;align=center;verticalAlign=middle;whiteSpace=wrap;rounded=0;fontColor=#D4AF37;" vertex="1" parent="1">
          <mxGeometry x="1387.5" y="345" width="260" height="30" as="geometry" />
        </mxCell>
        <mxCell id="7g9YASAPQkTzJjuGKXkD-40" value="" style="whiteSpace=wrap;html=1;fillColor=#171717;imageAspect=1;expand=1;resizeHeight=1;resizable=1;fixedWidth=1;recursiveResize=0;" vertex="1" parent="1">
          <mxGeometry x="1780" y="-250" width="440" height="1090" as="geometry" />
        </mxCell>
        <mxCell id="7g9YASAPQkTzJjuGKXkD-41" value="Contact Me Page" style="text;html=1;strokeColor=none;fillColor=none;align=center;verticalAlign=middle;whiteSpace=wrap;rounded=0;" vertex="1" parent="1">
          <mxGeometry x="1945" y="-280" width="120" height="30" as="geometry" />
        </mxCell>
        <mxCell id="7g9YASAPQkTzJjuGKXkD-42" value="&lt;h1 style=&quot;text-align: center;&quot;&gt;&lt;font color=&quot;#d4af37&quot;&gt;Contact Me&lt;/font&gt;&lt;/h1&gt;&lt;p style=&quot;text-align: center;&quot;&gt;Should probably write phone number and email, maybe some other stuff&lt;/p&gt;" style="text;html=1;strokeColor=none;fillColor=none;spacing=5;spacingTop=-20;whiteSpace=wrap;overflow=hidden;rounded=0;" vertex="1" parent="1">
          <mxGeometry x="1895" y="-195" width="210" height="145" as="geometry" />
        </mxCell>
        <mxCell id="7g9YASAPQkTzJjuGKXkD-43" value="" style="rounded=0;whiteSpace=wrap;html=1;fillColor=#292929;" vertex="1" parent="1">
          <mxGeometry x="1780" y="-250" width="440" height="30" as="geometry" />
        </mxCell>
        <mxCell id="7g9YASAPQkTzJjuGKXkD-44" value="Things to Share" style="text;html=1;strokeColor=none;fillColor=none;align=center;verticalAlign=middle;whiteSpace=wrap;rounded=0;" vertex="1" parent="1">
          <mxGeometry x="1955" y="-250" width="100" height="30" as="geometry" />
        </mxCell>
        <mxCell id="7g9YASAPQkTzJjuGKXkD-45" value="About Me" style="text;html=1;strokeColor=none;fillColor=none;align=center;verticalAlign=middle;whiteSpace=wrap;rounded=0;shadow=0;" vertex="1" parent="1">
          <mxGeometry x="1855" y="-250" width="100" height="30" as="geometry" />
        </mxCell>
        <mxCell id="7g9YASAPQkTzJjuGKXkD-46" value="Announcements" style="text;html=1;strokeColor=none;fillColor=none;align=center;verticalAlign=middle;whiteSpace=wrap;rounded=0;" vertex="1" parent="1">
          <mxGeometry x="2065" y="-250" width="100" height="30" as="geometry" />
        </mxCell>
        <mxCell id="7g9YASAPQkTzJjuGKXkD-67" value="" style="rounded=1;whiteSpace=wrap;html=1;fillColor=#292929;" vertex="1" parent="1">
          <mxGeometry x="1868.75" y="45" width="262.5" height="90" as="geometry" />
        </mxCell>
        <mxCell id="7g9YASAPQkTzJjuGKXkD-68" value="Put the form around here" style="text;html=1;strokeColor=none;fillColor=none;align=center;verticalAlign=middle;whiteSpace=wrap;rounded=0;" vertex="1" parent="1">
          <mxGeometry x="1970" y="75" width="60" height="30" as="geometry" />
        </mxCell>
        <mxCell id="7g9YASAPQkTzJjuGKXkD-82" value="" style="whiteSpace=wrap;html=1;fillColor=#171717;imageAspect=1;expand=1;resizeHeight=1;resizable=1;fixedWidth=1;recursiveResize=0;" vertex="1" parent="1">
          <mxGeometry x="2260" y="-255" width="440" height="1090" as="geometry" />
        </mxCell>
        <mxCell id="7g9YASAPQkTzJjuGKXkD-83" value="My Beliefs Page" style="text;html=1;strokeColor=none;fillColor=none;align=center;verticalAlign=middle;whiteSpace=wrap;rounded=0;" vertex="1" parent="1">
          <mxGeometry x="2425" y="-285" width="120" height="30" as="geometry" />
        </mxCell>
        <mxCell id="7g9YASAPQkTzJjuGKXkD-84" value="&lt;h1 style=&quot;&quot;&gt;&lt;font color=&quot;#d4af37&quot;&gt;My Beliefs&lt;/font&gt;&lt;/h1&gt;&lt;p style=&quot;&quot;&gt;Write some stuff here&amp;nbsp;&lt;/p&gt;" style="text;html=1;strokeColor=none;fillColor=none;spacing=5;spacingTop=-20;whiteSpace=wrap;overflow=hidden;rounded=0;align=center;" vertex="1" parent="1">
          <mxGeometry x="2375" y="-200" width="210" height="145" as="geometry" />
        </mxCell>
        <mxCell id="7g9YASAPQkTzJjuGKXkD-85" value="" style="rounded=0;whiteSpace=wrap;html=1;fillColor=#292929;" vertex="1" parent="1">
          <mxGeometry x="2260" y="-255" width="440" height="30" as="geometry" />
        </mxCell>
        <mxCell id="7g9YASAPQkTzJjuGKXkD-86" value="Things to Share" style="text;html=1;strokeColor=none;fillColor=none;align=center;verticalAlign=middle;whiteSpace=wrap;rounded=0;" vertex="1" parent="1">
          <mxGeometry x="2435" y="-255" width="100" height="30" as="geometry" />
        </mxCell>
        <mxCell id="7g9YASAPQkTzJjuGKXkD-87" value="About Me" style="text;html=1;strokeColor=none;fillColor=none;align=center;verticalAlign=middle;whiteSpace=wrap;rounded=0;shadow=0;" vertex="1" parent="1">
          <mxGeometry x="2335" y="-255" width="100" height="30" as="geometry" />
        </mxCell>
        <mxCell id="7g9YASAPQkTzJjuGKXkD-88" value="Announcements" style="text;html=1;strokeColor=none;fillColor=none;align=center;verticalAlign=middle;whiteSpace=wrap;rounded=0;" vertex="1" parent="1">
          <mxGeometry x="2545" y="-255" width="100" height="30" as="geometry" />
        </mxCell>
        <mxCell id="7g9YASAPQkTzJjuGKXkD-89" value="" style="rounded=1;whiteSpace=wrap;html=1;fillColor=#292929;" vertex="1" parent="1">
          <mxGeometry x="2370" y="45" width="250" height="90" as="geometry" />
        </mxCell>
        <mxCell id="7g9YASAPQkTzJjuGKXkD-90" value="" style="rounded=1;whiteSpace=wrap;html=1;fillColor=#292929;" vertex="1" parent="1">
          <mxGeometry x="2364" y="210" width="256" height="90" as="geometry" />
        </mxCell>
        <mxCell id="7g9YASAPQkTzJjuGKXkD-91" value="&lt;h2&gt;Journey to Christ&lt;/h2&gt;" style="text;html=1;strokeColor=none;fillColor=none;align=center;verticalAlign=middle;whiteSpace=wrap;rounded=0;fontColor=#D4AF37;" vertex="1" parent="1">
          <mxGeometry x="2355" y="5" width="260" height="30" as="geometry" />
        </mxCell>
        <mxCell id="7g9YASAPQkTzJjuGKXkD-92" value="&lt;h2&gt;Points of Interest&lt;/h2&gt;" style="text;html=1;strokeColor=none;fillColor=none;align=center;verticalAlign=middle;whiteSpace=wrap;rounded=0;fontColor=#D4AF37;" vertex="1" parent="1">
          <mxGeometry x="2360" y="175" width="260" height="30" as="geometry" />
        </mxCell>
        <mxCell id="7g9YASAPQkTzJjuGKXkD-93" value="" style="rounded=1;whiteSpace=wrap;html=1;fillColor=#292929;" vertex="1" parent="1">
          <mxGeometry x="2360" y="385" width="262.5" height="90" as="geometry" />
        </mxCell>
        <mxCell id="7g9YASAPQkTzJjuGKXkD-94" value="&lt;h2&gt;Favorite Verses&lt;/h2&gt;" style="text;html=1;strokeColor=none;fillColor=none;align=center;verticalAlign=middle;whiteSpace=wrap;rounded=0;fontColor=#D4AF37;" vertex="1" parent="1">
          <mxGeometry x="2357.5" y="345" width="260" height="30" as="geometry" />
        </mxCell>
        <mxCell id="7g9YASAPQkTzJjuGKXkD-95" value="" style="whiteSpace=wrap;html=1;fillColor=#171717;imageAspect=1;expand=1;resizeHeight=1;resizable=1;fixedWidth=1;recursiveResize=0;" vertex="1" parent="1">
          <mxGeometry x="787.5" y="950" width="440" height="1090" as="geometry" />
        </mxCell>
        <mxCell id="7g9YASAPQkTzJjuGKXkD-96" value="Photo Collection Page" style="text;html=1;strokeColor=none;fillColor=none;align=center;verticalAlign=middle;whiteSpace=wrap;rounded=0;" vertex="1" parent="1">
          <mxGeometry x="952.5" y="920" width="120" height="30" as="geometry" />
        </mxCell>
        <mxCell id="7g9YASAPQkTzJjuGKXkD-97" value="&lt;h1 style=&quot;text-align: center;&quot;&gt;&lt;font color=&quot;#d4af37&quot;&gt;Photo Collection&lt;/font&gt;&lt;/h1&gt;&lt;p style=&quot;text-align: center;&quot;&gt;Pretty self explanatory but might want a little welcome thing&lt;/p&gt;" style="text;html=1;strokeColor=none;fillColor=none;spacing=5;spacingTop=-20;whiteSpace=wrap;overflow=hidden;rounded=0;" vertex="1" parent="1">
          <mxGeometry x="902.5" y="1005" width="210" height="145" as="geometry" />
        </mxCell>
        <mxCell id="7g9YASAPQkTzJjuGKXkD-98" value="" style="rounded=0;whiteSpace=wrap;html=1;fillColor=#292929;" vertex="1" parent="1">
          <mxGeometry x="787.5" y="950" width="440" height="30" as="geometry" />
        </mxCell>
        <mxCell id="7g9YASAPQkTzJjuGKXkD-99" value="Things to Share" style="text;html=1;strokeColor=none;fillColor=none;align=center;verticalAlign=middle;whiteSpace=wrap;rounded=0;" vertex="1" parent="1">
          <mxGeometry x="962.5" y="950" width="100" height="30" as="geometry" />
        </mxCell>
        <mxCell id="7g9YASAPQkTzJjuGKXkD-100" value="About Me" style="text;html=1;strokeColor=none;fillColor=none;align=center;verticalAlign=middle;whiteSpace=wrap;rounded=0;shadow=0;" vertex="1" parent="1">
          <mxGeometry x="862.5" y="950" width="100" height="30" as="geometry" />
        </mxCell>
        <mxCell id="7g9YASAPQkTzJjuGKXkD-101" value="Announcements" style="text;html=1;strokeColor=none;fillColor=none;align=center;verticalAlign=middle;whiteSpace=wrap;rounded=0;" vertex="1" parent="1">
          <mxGeometry x="1072.5" y="950" width="100" height="30" as="geometry" />
        </mxCell>
        <mxCell id="7g9YASAPQkTzJjuGKXkD-103" value="" style="rounded=1;whiteSpace=wrap;html=1;fillColor=#292929;" vertex="1" parent="1">
          <mxGeometry x="891.5" y="1250" width="80" height="90" as="geometry" />
        </mxCell>
        <mxCell id="7g9YASAPQkTzJjuGKXkD-117" value="Image" style="text;html=1;strokeColor=none;fillColor=none;align=center;verticalAlign=middle;whiteSpace=wrap;rounded=0;" vertex="1" parent="1">
          <mxGeometry x="901.5" y="1280" width="60" height="30" as="geometry" />
        </mxCell>
        <mxCell id="7g9YASAPQkTzJjuGKXkD-122" value="" style="whiteSpace=wrap;html=1;fillColor=#171717;imageAspect=1;expand=1;resizeHeight=1;resizable=1;fixedWidth=1;recursiveResize=0;" vertex="1" parent="1">
          <mxGeometry x="1305" y="950" width="440" height="1090" as="geometry" />
        </mxCell>
        <mxCell id="7g9YASAPQkTzJjuGKXkD-123" value="Meme Collection Page" style="text;html=1;strokeColor=none;fillColor=none;align=center;verticalAlign=middle;whiteSpace=wrap;rounded=0;" vertex="1" parent="1">
          <mxGeometry x="1470" y="920" width="120" height="30" as="geometry" />
        </mxCell>
        <mxCell id="7g9YASAPQkTzJjuGKXkD-124" value="&lt;h1 style=&quot;text-align: center;&quot;&gt;&lt;font color=&quot;#d4af37&quot;&gt;All the Memes. All the Time.&lt;/font&gt;&lt;/h1&gt;&lt;p style=&quot;text-align: center;&quot;&gt;&lt;br&gt;&lt;/p&gt;" style="text;html=1;strokeColor=none;fillColor=none;spacing=5;spacingTop=-20;whiteSpace=wrap;overflow=hidden;rounded=0;" vertex="1" parent="1">
          <mxGeometry x="1420" y="1005" width="210" height="145" as="geometry" />
        </mxCell>
        <mxCell id="7g9YASAPQkTzJjuGKXkD-125" value="" style="rounded=0;whiteSpace=wrap;html=1;fillColor=#292929;" vertex="1" parent="1">
          <mxGeometry x="1305" y="950" width="440" height="30" as="geometry" />
        </mxCell>
        <mxCell id="7g9YASAPQkTzJjuGKXkD-126" value="Things to Share" style="text;html=1;strokeColor=none;fillColor=none;align=center;verticalAlign=middle;whiteSpace=wrap;rounded=0;" vertex="1" parent="1">
          <mxGeometry x="1480" y="950" width="100" height="30" as="geometry" />
        </mxCell>
        <mxCell id="7g9YASAPQkTzJjuGKXkD-127" value="About Me" style="text;html=1;strokeColor=none;fillColor=none;align=center;verticalAlign=middle;whiteSpace=wrap;rounded=0;shadow=0;" vertex="1" parent="1">
          <mxGeometry x="1380" y="950" width="100" height="30" as="geometry" />
        </mxCell>
        <mxCell id="7g9YASAPQkTzJjuGKXkD-128" value="Announcements" style="text;html=1;strokeColor=none;fillColor=none;align=center;verticalAlign=middle;whiteSpace=wrap;rounded=0;" vertex="1" parent="1">
          <mxGeometry x="1590" y="950" width="100" height="30" as="geometry" />
        </mxCell>
        <mxCell id="7g9YASAPQkTzJjuGKXkD-149" value="" style="rounded=1;whiteSpace=wrap;html=1;fillColor=#292929;" vertex="1" parent="1">
          <mxGeometry x="990" y="1250" width="80" height="90" as="geometry" />
        </mxCell>
        <mxCell id="7g9YASAPQkTzJjuGKXkD-150" value="Image" style="text;html=1;strokeColor=none;fillColor=none;align=center;verticalAlign=middle;whiteSpace=wrap;rounded=0;" vertex="1" parent="1">
          <mxGeometry x="1000" y="1280" width="60" height="30" as="geometry" />
        </mxCell>
        <mxCell id="7g9YASAPQkTzJjuGKXkD-151" value="" style="rounded=1;whiteSpace=wrap;html=1;fillColor=#292929;" vertex="1" parent="1">
          <mxGeometry x="1085" y="1250" width="80" height="90" as="geometry" />
        </mxCell>
        <mxCell id="7g9YASAPQkTzJjuGKXkD-152" value="Image" style="text;html=1;strokeColor=none;fillColor=none;align=center;verticalAlign=middle;whiteSpace=wrap;rounded=0;" vertex="1" parent="1">
          <mxGeometry x="1095" y="1280" width="60" height="30" as="geometry" />
        </mxCell>
        <mxCell id="7g9YASAPQkTzJjuGKXkD-153" value="" style="rounded=1;whiteSpace=wrap;html=1;fillColor=#292929;" vertex="1" parent="1">
          <mxGeometry x="891.5" y="1360" width="80" height="90" as="geometry" />
        </mxCell>
        <mxCell id="7g9YASAPQkTzJjuGKXkD-154" value="Image" style="text;html=1;strokeColor=none;fillColor=none;align=center;verticalAlign=middle;whiteSpace=wrap;rounded=0;" vertex="1" parent="1">
          <mxGeometry x="901.5" y="1390" width="60" height="30" as="geometry" />
        </mxCell>
        <mxCell id="7g9YASAPQkTzJjuGKXkD-155" value="" style="rounded=1;whiteSpace=wrap;html=1;fillColor=#292929;" vertex="1" parent="1">
          <mxGeometry x="990" y="1360" width="80" height="90" as="geometry" />
        </mxCell>
        <mxCell id="7g9YASAPQkTzJjuGKXkD-156" value="Image" style="text;html=1;strokeColor=none;fillColor=none;align=center;verticalAlign=middle;whiteSpace=wrap;rounded=0;" vertex="1" parent="1">
          <mxGeometry x="1000" y="1390" width="60" height="30" as="geometry" />
        </mxCell>
        <mxCell id="7g9YASAPQkTzJjuGKXkD-157" value="" style="rounded=1;whiteSpace=wrap;html=1;fillColor=#292929;" vertex="1" parent="1">
          <mxGeometry x="1085" y="1360" width="80" height="90" as="geometry" />
        </mxCell>
        <mxCell id="7g9YASAPQkTzJjuGKXkD-158" value="Image" style="text;html=1;strokeColor=none;fillColor=none;align=center;verticalAlign=middle;whiteSpace=wrap;rounded=0;" vertex="1" parent="1">
          <mxGeometry x="1095" y="1390" width="60" height="30" as="geometry" />
        </mxCell>
        <mxCell id="7g9YASAPQkTzJjuGKXkD-159" value="" style="rounded=1;whiteSpace=wrap;html=1;fillColor=#292929;" vertex="1" parent="1">
          <mxGeometry x="891.5" y="1475" width="80" height="90" as="geometry" />
        </mxCell>
        <mxCell id="7g9YASAPQkTzJjuGKXkD-160" value="Image" style="text;html=1;strokeColor=none;fillColor=none;align=center;verticalAlign=middle;whiteSpace=wrap;rounded=0;" vertex="1" parent="1">
          <mxGeometry x="901.5" y="1505" width="60" height="30" as="geometry" />
        </mxCell>
        <mxCell id="7g9YASAPQkTzJjuGKXkD-161" value="" style="rounded=1;whiteSpace=wrap;html=1;fillColor=#292929;" vertex="1" parent="1">
          <mxGeometry x="990" y="1475" width="80" height="90" as="geometry" />
        </mxCell>
        <mxCell id="7g9YASAPQkTzJjuGKXkD-162" value="Image" style="text;html=1;strokeColor=none;fillColor=none;align=center;verticalAlign=middle;whiteSpace=wrap;rounded=0;" vertex="1" parent="1">
          <mxGeometry x="1000" y="1505" width="60" height="30" as="geometry" />
        </mxCell>
        <mxCell id="7g9YASAPQkTzJjuGKXkD-163" value="" style="rounded=1;whiteSpace=wrap;html=1;fillColor=#292929;" vertex="1" parent="1">
          <mxGeometry x="1085" y="1475" width="80" height="90" as="geometry" />
        </mxCell>
        <mxCell id="7g9YASAPQkTzJjuGKXkD-164" value="Image" style="text;html=1;strokeColor=none;fillColor=none;align=center;verticalAlign=middle;whiteSpace=wrap;rounded=0;" vertex="1" parent="1">
          <mxGeometry x="1095" y="1505" width="60" height="30" as="geometry" />
        </mxCell>
        <mxCell id="7g9YASAPQkTzJjuGKXkD-165" value="" style="rounded=1;whiteSpace=wrap;html=1;fillColor=#292929;" vertex="1" parent="1">
          <mxGeometry x="1379" y="1247.5" width="80" height="90" as="geometry" />
        </mxCell>
        <mxCell id="7g9YASAPQkTzJjuGKXkD-166" value="Image" style="text;html=1;strokeColor=none;fillColor=none;align=center;verticalAlign=middle;whiteSpace=wrap;rounded=0;" vertex="1" parent="1">
          <mxGeometry x="1389" y="1277.5" width="60" height="30" as="geometry" />
        </mxCell>
        <mxCell id="7g9YASAPQkTzJjuGKXkD-167" value="" style="rounded=1;whiteSpace=wrap;html=1;fillColor=#292929;" vertex="1" parent="1">
          <mxGeometry x="1477.5" y="1247.5" width="80" height="90" as="geometry" />
        </mxCell>
        <mxCell id="7g9YASAPQkTzJjuGKXkD-168" value="Image" style="text;html=1;strokeColor=none;fillColor=none;align=center;verticalAlign=middle;whiteSpace=wrap;rounded=0;" vertex="1" parent="1">
          <mxGeometry x="1487.5" y="1277.5" width="60" height="30" as="geometry" />
        </mxCell>
        <mxCell id="7g9YASAPQkTzJjuGKXkD-169" value="" style="rounded=1;whiteSpace=wrap;html=1;fillColor=#292929;" vertex="1" parent="1">
          <mxGeometry x="1572.5" y="1247.5" width="80" height="90" as="geometry" />
        </mxCell>
        <mxCell id="7g9YASAPQkTzJjuGKXkD-170" value="Image" style="text;html=1;strokeColor=none;fillColor=none;align=center;verticalAlign=middle;whiteSpace=wrap;rounded=0;" vertex="1" parent="1">
          <mxGeometry x="1582.5" y="1277.5" width="60" height="30" as="geometry" />
        </mxCell>
        <mxCell id="7g9YASAPQkTzJjuGKXkD-171" value="" style="rounded=1;whiteSpace=wrap;html=1;fillColor=#292929;" vertex="1" parent="1">
          <mxGeometry x="1379" y="1357.5" width="80" height="90" as="geometry" />
        </mxCell>
        <mxCell id="7g9YASAPQkTzJjuGKXkD-172" value="Image" style="text;html=1;strokeColor=none;fillColor=none;align=center;verticalAlign=middle;whiteSpace=wrap;rounded=0;" vertex="1" parent="1">
          <mxGeometry x="1389" y="1387.5" width="60" height="30" as="geometry" />
        </mxCell>
        <mxCell id="7g9YASAPQkTzJjuGKXkD-173" value="" style="rounded=1;whiteSpace=wrap;html=1;fillColor=#292929;" vertex="1" parent="1">
          <mxGeometry x="1477.5" y="1357.5" width="80" height="90" as="geometry" />
        </mxCell>
        <mxCell id="7g9YASAPQkTzJjuGKXkD-174" value="Image" style="text;html=1;strokeColor=none;fillColor=none;align=center;verticalAlign=middle;whiteSpace=wrap;rounded=0;" vertex="1" parent="1">
          <mxGeometry x="1487.5" y="1387.5" width="60" height="30" as="geometry" />
        </mxCell>
        <mxCell id="7g9YASAPQkTzJjuGKXkD-175" value="" style="rounded=1;whiteSpace=wrap;html=1;fillColor=#292929;" vertex="1" parent="1">
          <mxGeometry x="1572.5" y="1357.5" width="80" height="90" as="geometry" />
        </mxCell>
        <mxCell id="7g9YASAPQkTzJjuGKXkD-176" value="Image" style="text;html=1;strokeColor=none;fillColor=none;align=center;verticalAlign=middle;whiteSpace=wrap;rounded=0;" vertex="1" parent="1">
          <mxGeometry x="1582.5" y="1387.5" width="60" height="30" as="geometry" />
        </mxCell>
        <mxCell id="7g9YASAPQkTzJjuGKXkD-177" value="" style="rounded=1;whiteSpace=wrap;html=1;fillColor=#292929;" vertex="1" parent="1">
          <mxGeometry x="1379" y="1472.5" width="80" height="90" as="geometry" />
        </mxCell>
        <mxCell id="7g9YASAPQkTzJjuGKXkD-178" value="Image" style="text;html=1;strokeColor=none;fillColor=none;align=center;verticalAlign=middle;whiteSpace=wrap;rounded=0;" vertex="1" parent="1">
          <mxGeometry x="1389" y="1502.5" width="60" height="30" as="geometry" />
        </mxCell>
        <mxCell id="7g9YASAPQkTzJjuGKXkD-179" value="" style="rounded=1;whiteSpace=wrap;html=1;fillColor=#292929;" vertex="1" parent="1">
          <mxGeometry x="1477.5" y="1472.5" width="80" height="90" as="geometry" />
        </mxCell>
        <mxCell id="7g9YASAPQkTzJjuGKXkD-180" value="Image" style="text;html=1;strokeColor=none;fillColor=none;align=center;verticalAlign=middle;whiteSpace=wrap;rounded=0;" vertex="1" parent="1">
          <mxGeometry x="1487.5" y="1502.5" width="60" height="30" as="geometry" />
        </mxCell>
        <mxCell id="7g9YASAPQkTzJjuGKXkD-181" value="" style="rounded=1;whiteSpace=wrap;html=1;fillColor=#292929;" vertex="1" parent="1">
          <mxGeometry x="1572.5" y="1472.5" width="80" height="90" as="geometry" />
        </mxCell>
        <mxCell id="7g9YASAPQkTzJjuGKXkD-182" value="Image" style="text;html=1;strokeColor=none;fillColor=none;align=center;verticalAlign=middle;whiteSpace=wrap;rounded=0;" vertex="1" parent="1">
          <mxGeometry x="1582.5" y="1502.5" width="60" height="30" as="geometry" />
        </mxCell>
      </root>
    </mxGraphModel>
  </diagram>
</mxfile>
